<?xml version="1.0" standalone="no"?>
<!DOCTYPE svg PUBLIC "-//W3C//DTD SVG 20010904//EN"
 "http://www.w3.org/TR/2001/REC-SVG-20010904/DTD/svg10.dtd">
<svg version="1.0" xmlns="http://www.w3.org/2000/svg"
 width="500.000000pt" height="500.000000pt" viewBox="0 0 500.000000 500.000000"
 preserveAspectRatio="xMidYMid meet">
<metadata>
Created by potrace 1.14, written by Peter Selinger 2001-2017
</metadata>
<g transform="translate(0.000000,500.000000) scale(0.100000,-0.100000)"
fill="#000000" stroke="none">
<path d="M2505 4120 c-43 -11 -489 -188 -528 -210 -9 -6 -43 -20 -75 -32 -54
-20 -382 -154 -447 -182 -82 -36 -101 -40 -126 -23 -36 26 -74 21 -114 -14
-39 -34 -42 -52 -20 -105 10 -25 15 -73 16 -153 1 -188 3 -176 -35 -202 -19
-12 -49 -46 -67 -73 -33 -49 -34 -55 -37 -167 -4 -103 -2 -121 19 -170 13 -30
34 -64 48 -77 24 -21 33 -23 127 -20 94 3 103 5 123 28 41 50 61 124 61 228 0
111 -20 168 -84 235 l-36 38 0 143 c0 187 2 189 115 140 44 -19 137 -58 208
-85 106 -43 127 -54 128 -72 0 -12 1 -87 1 -167 l0 -145 -35 -53 c-20 -29 -41
-68 -48 -87 -7 -19 -18 -35 -24 -36 -43 -3 -121 -39 -157 -72 -95 -89 -130
-246 -80 -360 37 -82 161 -186 224 -187 10 0 29 -23 48 -59 18 -32 54 -84 81
-114 43 -48 47 -56 33 -68 -21 -17 -44 -64 -44 -88 0 -15 -13 -26 -49 -42 -83
-35 -153 -123 -168 -210 -24 -150 35 -272 162 -334 49 -25 53 -29 59 -70 3
-25 17 -63 31 -85 20 -31 24 -48 19 -77 -3 -21 -6 -51 -7 -68 -2 -29 -5 -30
-52 -33 -64 -3 -95 -24 -95 -62 0 -63 -40 -60 894 -59 822 1 848 1 867 20 24
24 24 48 -1 78 -17 20 -29 23 -90 24 -38 0 -71 3 -71 6 -1 3 -3 23 -4 43 -1
20 -5 48 -9 62 -4 18 2 41 24 79 16 30 31 69 33 87 2 28 8 35 35 44 51 18 126
89 155 148 22 47 25 64 23 143 -2 80 -5 95 -31 135 -39 62 -92 112 -142 134
-24 11 -44 23 -44 28 -1 4 -3 13 -4 18 -1 6 -3 16 -4 23 0 6 -12 25 -26 41
-14 16 -25 30 -25 32 0 1 16 20 36 41 43 44 114 150 114 169 0 7 24 20 53 28
125 37 214 154 222 291 2 34 -20 118 -42 160 -36 69 -116 130 -195 149 -21 5
-35 20 -54 59 -14 28 -38 67 -51 86 -25 32 -26 38 -27 197 l-1 164 93 40 c51
22 98 40 103 40 6 0 31 9 57 21 71 30 82 35 145 59 62 24 80 45 75 88 -4 33
23 20 -383 187 -88 36 -187 77 -220 91 -33 14 -69 29 -80 34 -11 4 -41 17 -67
29 -26 12 -50 21 -53 21 -5 0 -39 15 -153 66 -29 13 -56 24 -60 24 -4 0 -40
14 -81 31 -76 32 -135 41 -186 29z"/>
</g>
</svg>
